<svg width="20" height="25" viewBox="0 0 20 25" fill="none" xmlns="http://www.w3.org/2000/svg">
<path d="M9.3125 18.75C9.6875 18.75 10.0573 18.7031 10.4219 18.6094C10.7865 18.5156 11.125 18.375 11.4375 18.1875L14.5 21.25L16.25 19.5L13.1875 16.4375C13.375 16.125 13.5156 15.7865 13.6094 15.4219C13.7031 15.0573 13.75 14.6875 13.75 14.3125C13.75 13.1042 13.3229 12.0833 12.4688 11.25C11.6146 10.4167 10.5833 10 9.375 10C8.16667 10 7.13542 10.4271 6.28125 11.2812C5.42708 12.1354 5 13.1667 5 14.375C5 15.5833 5.41667 16.6146 6.25 17.4688C7.08333 18.3229 8.10417 18.75 9.3125 18.75ZM9.375 16.25C8.85417 16.25 8.41146 16.0677 8.04688 15.7031C7.68229 15.3385 7.5 14.8958 7.5 14.375C7.5 13.8542 7.68229 13.4115 8.04688 13.0469C8.41146 12.6823 8.85417 12.5 9.375 12.5C9.89583 12.5 10.3385 12.6823 10.7031 13.0469C11.0677 13.4115 11.25 13.8542 11.25 14.375C11.25 14.8958 11.0677 15.3385 10.7031 15.7031C10.3385 16.0677 9.89583 16.25 9.375 16.25ZM2.5 25C1.8125 25 1.22396 24.7552 0.734375 24.2656C0.244792 23.776 0 23.1875 0 22.5V2.5C0 1.8125 0.244792 1.22396 0.734375 0.734375C1.22396 0.244792 1.8125 0 2.5 0H12.5L20 7.5V22.5C20 23.1875 19.7552 23.776 19.2656 24.2656C18.776 24.7552 18.1875 25 17.5 25H2.5ZM11.25 8.75H17.5L11.25 2.5V8.75Z" fill="#775A19"/>
</svg>
