<svg width="27" height="26" viewBox="0 0 27 26" fill="none" xmlns="http://www.w3.org/2000/svg">
<path d="M7.5 23.1562V11.875H9.5C9.64583 11.875 9.79167 11.8906 9.9375 11.9219C10.0833 11.9531 10.2292 11.9896 10.375 12.0312L19.0312 15.25C19.3229 15.3542 19.5573 15.5417 19.7344 15.8125C19.9115 16.0833 20 16.3646 20 16.6562C20 17.0938 19.849 17.4479 19.5469 17.7188C19.2448 17.9896 18.8958 18.125 18.5 18.125H15.2188C15.1146 18.125 15.0365 18.1198 14.9844 18.1094C14.9323 18.099 14.8646 18.0729 14.7812 18.0312L12.7812 17.25L12.375 18.4688L14.7812 19.3125C14.8229 19.3333 14.8854 19.349 14.9688 19.3594C15.0521 19.3698 15.125 19.375 15.1875 19.375H23.75C24.4167 19.375 25 19.6146 25.5 20.0938C26 20.5729 26.25 21.1667 26.25 21.875L16.2812 25.625L7.5 23.1562ZM0 25.625V11.875H5V25.625H0ZM16.875 8.125H18.125V6.875H16.875V8.125ZM14.375 8.125H15.625V6.875H14.375V8.125ZM16.875 10.625H18.125V9.375H16.875V10.625ZM14.375 10.625H15.625V9.375H14.375V10.625ZM21.9062 15.625C21.6146 14.9375 21.1979 14.3333 20.6562 13.8125C20.1146 13.2917 19.4479 12.8854 18.6562 12.5938L10 9.375H7.5V6.25L16.25 0L25 6.25V15.625H21.9062Z" fill="#775A19"/>
</svg>
