<svg width="23" height="25" viewBox="0 0 23 25" fill="none" xmlns="http://www.w3.org/2000/svg">
<path d="M3.75 25C2.70833 25 1.82292 24.6354 1.09375 23.9062C0.364583 23.1771 0 22.2917 0 21.25V17.5H3.75V0H22.5V21.25C22.5 22.2917 22.1354 23.1771 21.4062 23.9062C20.6771 24.6354 19.7917 25 18.75 25H3.75ZM18.75 22.5C19.1042 22.5 19.401 22.3802 19.6406 22.1406C19.8802 21.901 20 21.6042 20 21.25V2.5H6.25V17.5H17.5V21.25C17.5 21.6042 17.6198 21.901 17.8594 22.1406C18.099 22.3802 18.3958 22.5 18.75 22.5ZM7.5 8.75V6.25H18.75V8.75H7.5ZM7.5 12.5V10H18.75V12.5H7.5Z" fill="#775A19"/>
</svg>
