<svg width="25" height="23" viewBox="0 0 25 23" fill="none" xmlns="http://www.w3.org/2000/svg">
<path d="M12.625 22.5C12.2708 22.5 11.974 22.3802 11.7344 22.1406C11.4948 21.901 11.375 21.6042 11.375 21.25C11.375 21.1042 11.4062 20.9531 11.4688 20.7969C11.5312 20.6406 11.625 20.5 11.75 20.375L17.5312 14.5938L16.625 13.6875L10.875 19.4688C10.75 19.5938 10.6146 19.6875 10.4688 19.75C10.3229 19.8125 10.1667 19.8438 10 19.8438C9.64583 19.8438 9.34896 19.724 9.10938 19.4844C8.86979 19.2448 8.75 18.9479 8.75 18.5938C8.75 18.3854 8.78125 18.2135 8.84375 18.0781C8.90625 17.9427 8.98958 17.8229 9.09375 17.7188L14.875 11.9375L14 11.0625L8.21875 16.8125C8.09375 16.9375 7.95833 17.0312 7.8125 17.0938C7.66667 17.1562 7.5 17.1875 7.3125 17.1875C6.97917 17.1875 6.6875 17.0625 6.4375 16.8125C6.1875 16.5625 6.0625 16.2708 6.0625 15.9375C6.0625 15.7708 6.09375 15.6146 6.15625 15.4688C6.21875 15.3229 6.3125 15.1875 6.4375 15.0625L12.2188 9.28125L11.3125 8.40625L5.5625 14.1875C5.45833 14.2917 5.33333 14.375 5.1875 14.4375C5.04167 14.5 4.86458 14.5312 4.65625 14.5312C4.30208 14.5312 4.00521 14.4115 3.76562 14.1719C3.52604 13.9323 3.40625 13.6354 3.40625 13.2812C3.40625 13.1146 3.4375 12.9583 3.5 12.8125C3.5625 12.6667 3.65625 12.5312 3.78125 12.4062L10.75 5.4375L15.4375 10.1562C15.6667 10.3854 15.9375 10.5677 16.25 10.7031C16.5625 10.8385 16.875 10.9062 17.1875 10.9062C17.8542 10.9062 18.4375 10.6719 18.9375 10.2031C19.4375 9.73438 19.6875 9.13542 19.6875 8.40625C19.6875 8.11458 19.6354 7.8125 19.5312 7.5C19.4271 7.1875 19.2396 6.89583 18.9688 6.625L13.375 1.03125C13.7292 0.697917 14.125 0.442708 14.5625 0.265625C15 0.0885417 15.4375 0 15.875 0C16.4167 0 16.9167 0.0885417 17.375 0.265625C17.8333 0.442708 18.25 0.71875 18.625 1.09375L23.9062 6.40625C24.2812 6.78125 24.5573 7.19792 24.7344 7.65625C24.9115 8.11458 25 8.64583 25 9.25C25 9.66667 24.9062 10.0885 24.7188 10.5156C24.5312 10.9427 24.2604 11.3333 23.9062 11.6875L13.5 22.125C13.3333 22.2917 13.1875 22.3958 13.0625 22.4375C12.9375 22.4792 12.7917 22.5 12.625 22.5ZM1.90625 12.5L1.09375 11.6875C0.739583 11.3542 0.46875 10.9583 0.28125 10.5C0.09375 10.0417 0 9.5625 0 9.0625C0 8.52083 0.104167 8.02083 0.3125 7.5625C0.520833 7.10417 0.78125 6.71875 1.09375 6.40625L6.375 1.09375C6.70833 0.760417 7.10417 0.494792 7.5625 0.296875C8.02083 0.0989583 8.46875 0 8.90625 0C9.46875 0 9.96875 0.078125 10.4062 0.234375C10.8438 0.390625 11.2708 0.677083 11.6875 1.09375L18.0938 7.5C18.2188 7.625 18.3125 7.76042 18.375 7.90625C18.4375 8.05208 18.4688 8.20833 18.4688 8.375C18.4688 8.70833 18.3438 9 18.0938 9.25C17.8438 9.5 17.5521 9.625 17.2188 9.625C17.0312 9.625 16.875 9.59896 16.75 9.54688C16.625 9.49479 16.4896 9.39583 16.3438 9.25L10.7188 3.6875L1.90625 12.5Z" fill="#775A19"/>
</svg>
