<svg width="29" height="28" viewBox="0 0 29 28" fill="none" xmlns="http://www.w3.org/2000/svg">
<path d="M2.71152 27.7498C1.95383 27.7498 1.31249 27.4873 0.787493 26.9623C0.262498 26.4373 0 25.796 0 25.0383V7.96146C0 7.20377 0.262498 6.56243 0.787493 6.03744C1.31249 5.51244 1.95383 5.24995 2.71152 5.24995H9V2.71152C9 1.95383 9.2625 1.31249 9.78749 0.787493C10.3125 0.262498 10.9538 0 11.7115 0H16.7884C17.5461 0 18.1874 0.262498 18.7124 0.787493C19.2374 1.31249 19.4999 1.95383 19.4999 2.71152V5.24995H25.7884C26.5461 5.24995 27.1874 5.51244 27.7124 6.03744C28.2374 6.56243 28.4999 7.20377 28.4999 7.96146V25.0383C28.4999 25.796 28.2374 26.4373 27.7124 26.9623C27.1874 27.4873 26.5461 27.7498 25.7884 27.7498H2.71152ZM2.71152 25.4999H25.7884C25.9038 25.4999 26.0095 25.4518 26.1057 25.3556C26.2019 25.2595 26.2499 25.1537 26.2499 25.0383V7.96146C26.2499 7.84607 26.2019 7.74029 26.1057 7.64413C26.0095 7.54797 25.9038 7.49989 25.7884 7.49989H2.71152C2.59612 7.49989 2.49035 7.54797 2.39419 7.64413C2.29803 7.74029 2.24995 7.84607 2.24995 7.96146V25.0383C2.24995 25.1537 2.29803 25.2595 2.39419 25.3556C2.49035 25.4518 2.59612 25.4999 2.71152 25.4999ZM11.2499 5.24995H17.2499V2.71152C17.2499 2.59612 17.2019 2.49035 17.1057 2.39419C17.0095 2.29803 16.9038 2.24995 16.7884 2.24995H11.7115C11.5961 2.24995 11.4903 2.29803 11.3942 2.39419C11.298 2.49035 11.2499 2.59612 11.2499 2.71152V5.24995ZM2.24995 25.4999C2.24995 25.4999 2.24995 25.4518 2.24995 25.3556C2.24995 25.2595 2.24995 25.1537 2.24995 25.0383V7.96146C2.24995 7.84607 2.24995 7.74029 2.24995 7.64413C2.24995 7.54797 2.24995 7.49989 2.24995 7.49989C2.24995 7.49989 2.24995 7.54797 2.24995 7.64413C2.24995 7.74029 2.24995 7.84607 2.24995 7.96146V25.0383C2.24995 25.1537 2.24995 25.2595 2.24995 25.3556C2.24995 25.4518 2.24995 25.4999 2.24995 25.4999ZM13.125 17.6249V22.1249H15.3749V17.6249H19.8749V15.3749H15.3749V10.8749H13.125V15.3749H8.62497V17.6249H13.125Z" fill="#FFDEA5"/>
</svg>
