<svg width="42" height="54" viewBox="0 0 42 54" fill="none" xmlns="http://www.w3.org/2000/svg">
<path d="M21 36.6923C25.1769 32.9 27.8462 30.2587 29.0077 28.7683C30.1693 27.2779 30.75 25.7842 30.75 24.2871C30.75 22.8305 30.2194 21.5762 29.158 20.5242C28.0966 19.4722 26.8311 18.9462 25.3616 18.9462C24.4654 18.9462 23.6328 19.1178 22.8637 19.4611C22.0945 19.8043 21.4733 20.2789 21 20.8846C20.5154 20.2789 19.8894 19.8043 19.1221 19.4611C18.3548 19.1178 17.5269 18.9462 16.6385 18.9462C15.1846 18.9462 13.9231 19.4712 12.8539 20.5212C11.7846 21.5712 11.25 22.8258 11.25 24.2849C11.25 25.055 11.3532 25.7644 11.5594 26.4129C11.7657 27.0614 12.2196 27.8214 12.921 28.6928C13.6224 29.5643 14.6091 30.6287 15.8813 31.886C17.1534 33.1434 18.8596 34.7455 21 36.6923ZM21 53.6539C14.9731 51.8654 9.96635 48.2145 5.97981 42.701C1.99327 37.1875 0 30.9769 0 24.0693V7.84616L21 0L42 7.84616V24.0693C42 30.9769 40.0068 37.1875 36.0202 42.701C32.0337 48.2145 27.0269 51.8654 21 53.6539ZM21 50.4692C26.2 48.8192 30.5 45.5193 33.9 40.5693C37.3 35.6193 39 30.1193 39 24.0693V9.89425L21 3.20194L3.00002 9.89425V24.0693C3.00002 30.1193 4.70002 35.6193 8.10002 40.5693C11.5 45.5193 15.8 48.8192 21 50.4692Z" fill="#775A19"/>
</svg>
