<svg width="33" height="33" viewBox="0 0 33 33" fill="none" xmlns="http://www.w3.org/2000/svg">
<path d="M17.5103 15.8518L24.8971 26.4176H21.8655L15.8377 17.7959V17.7954L14.9528 16.5297L7.9113 6.45752H10.9429L16.6253 14.5862L17.5103 15.8518Z" fill="white"/>
<path d="M29.2775 0H3.5462C1.5874 0 -0.000610352 1.58801 -0.000610352 3.54681V29.2782C-0.000610352 31.237 1.5874 32.825 3.5462 32.825H29.2775C31.2363 32.825 32.8244 31.237 32.8244 29.2782V3.54681C32.8244 1.58801 31.2363 0 29.2775 0ZM20.9362 27.8362L14.8364 18.9588L7.19948 27.8362H5.2257L13.96 17.6837L5.2257 4.9719H11.8875L17.6636 13.3782L24.8953 4.9719H26.869L18.5403 14.6535H18.5397L27.598 27.8362H20.9362Z" fill="white"/>
</svg>
