<svg width="33" height="33" viewBox="0 0 33 33" fill="none" xmlns="http://www.w3.org/2000/svg">
<g clip-path="url(#clip0_1_261)">
<path d="M20.2441 16.8229L14.6365 19.8319C14.4997 19.8319 14.3629 19.9687 14.3629 19.9687C14.2262 19.9687 14.0894 19.9687 14.0894 19.8319C13.9526 19.6951 13.8159 19.5584 13.8159 19.2848V13.1301C13.8159 12.8566 13.9526 12.7198 14.0894 12.583C14.2262 12.4463 14.4997 12.4463 14.7733 12.583L20.3808 15.7288C20.6544 15.8655 20.7912 16.0023 20.7912 16.2759C20.5176 16.4126 20.3808 16.6862 20.2441 16.8229Z" fill="white"/>
<path d="M26.9461 0.684082H5.88344C3.01126 0.684082 0.686157 3.00918 0.686157 5.88137V26.9441C0.686157 29.8162 3.01126 32.1413 5.88344 32.1413H26.9461C29.8183 32.1413 32.1434 29.8162 32.1434 26.9441V5.88137C32.1434 3.00918 29.8183 0.684082 26.9461 0.684082ZM27.4932 17.2333C27.4932 19.0114 27.2197 20.7894 27.2197 20.7894C27.2197 20.9261 26.9461 22.5674 26.2623 23.388C25.4417 24.3454 24.3475 24.4822 23.9372 24.4822H23.8004C20.9282 24.7557 16.4148 24.7557 16.4148 24.7557C16.1412 24.7557 10.944 24.7557 9.30271 24.4822H9.02917C8.48209 24.3454 7.38792 24.3454 6.5673 23.388C5.74667 22.5674 5.47313 21.0629 5.47313 20.9261C5.47313 20.7894 5.19959 19.1481 5.19959 17.2333V15.5921L5.47313 12.0361C5.47313 11.8993 5.74667 10.258 6.43053 9.43741C7.25115 8.48001 8.34532 8.34324 8.75563 8.34324H8.8924C11.9014 8.0697 16.4148 8.0697 16.4148 8.0697C16.4148 8.0697 20.9282 8.0697 23.8004 8.34324H23.9372C24.4843 8.34324 25.4417 8.48001 26.2623 9.43741C27.0829 10.258 27.3564 11.7625 27.3564 11.8993C27.3564 12.036 27.63 13.6773 27.63 15.4553V17.2333H27.4932Z" fill="white"/>
<path d="M14.9101 18.1905L18.4662 16.1389L14.9101 14.2241V18.1905Z" fill="white"/>
</g>
<defs>
<clipPath id="clip0_1_261">
<rect width="32.825" height="32.825" fill="white"/>
</clipPath>
</defs>
</svg>
