<svg width="33" height="33" viewBox="0 0 33 33" fill="none" xmlns="http://www.w3.org/2000/svg">
<g clip-path="url(#clip0_1_257)">
<path d="M19.834 16.3934C19.834 18.3503 18.2478 19.9365 16.2909 19.9365C14.3339 19.9365 12.7478 18.3503 12.7478 16.3934C12.7478 14.4364 14.3339 12.8496 16.2909 12.8496C18.2478 12.8496 19.834 14.4364 19.834 16.3934Z" fill="white"/>
<path d="M29.277 0H3.54593C1.58706 0 -0.0010376 1.5881 -0.0010376 3.54697V29.278C-0.0010376 31.2369 1.58706 32.825 3.54593 32.825H29.277C31.2358 32.825 32.8239 31.2369 32.8239 29.278V3.54697C32.8239 1.5881 31.2358 0 29.277 0ZM26.857 20.7759C26.8058 21.9074 26.6259 22.6803 26.3633 23.3559C26.0912 24.0552 25.7281 24.6482 25.137 25.2392C24.546 25.8296 23.953 26.1934 23.2544 26.4649C22.5781 26.7281 21.8052 26.9074 20.6737 26.9592C19.5403 27.0111 19.1778 27.0233 16.2911 27.0233C13.4043 27.0233 13.0419 27.0111 11.9084 26.9592C10.7769 26.9074 10.004 26.7281 9.32776 26.4649C8.62912 26.1934 8.03615 25.8296 7.44509 25.2392C6.85404 24.6482 6.49095 24.0552 6.2188 23.3559C5.95625 22.6803 5.77695 21.9074 5.72508 20.7759C5.67321 19.6418 5.66104 19.28 5.66104 16.3933C5.66104 13.5059 5.67321 13.1441 5.72508 12.0106C5.77695 10.8791 5.95625 10.1062 6.2188 9.42997C6.49095 8.73134 6.85404 8.13836 7.44509 7.54731C8.03615 6.95625 8.62912 6.59253 9.32776 6.32101C10.004 6.05847 10.7769 5.87852 11.9084 5.8273C13.0419 5.77543 13.4043 5.76326 16.2911 5.76326C19.1778 5.76326 19.5403 5.77543 20.6737 5.8273C21.8052 5.87852 22.5781 6.05847 23.2544 6.32101C23.953 6.59253 24.546 6.95625 25.137 7.54731C25.7281 8.13836 26.0912 8.73134 26.3633 9.42997C26.6259 10.1062 26.8058 10.8791 26.857 12.0106C26.9089 13.1441 26.9211 13.5059 26.9211 16.3933C26.9211 19.28 26.9089 19.6418 26.857 20.7759ZM24.578 10.1241C24.3852 9.62784 24.1547 9.27372 23.7827 8.90167C23.4106 8.52962 23.0565 8.29909 22.5602 8.10634C22.1856 7.96098 21.6227 7.78744 20.5866 7.7407C19.4653 7.68947 19.1291 7.67858 16.2911 7.67858C13.453 7.67858 13.1168 7.68947 11.9955 7.7407C10.9594 7.78744 10.3965 7.96098 10.0219 8.10634C9.52563 8.29909 9.17151 8.52962 8.79946 8.90167C8.42741 9.27372 8.19688 9.62784 8.00413 10.1241C7.85877 10.4987 7.68587 11.0616 7.63848 12.0977C7.58725 13.2184 7.57637 13.5545 7.57637 16.3933C7.57637 19.2314 7.58725 19.5675 7.63848 20.6888C7.68587 21.7249 7.85877 22.2878 8.00413 22.6624C8.19688 23.1587 8.42741 23.5128 8.79946 23.8849C9.17151 24.2569 9.52563 24.4868 10.0219 24.6796C10.3965 24.8256 10.9594 24.9985 11.9955 25.0458C13.1161 25.0971 13.4523 25.108 16.2911 25.108C19.1298 25.108 19.466 25.0971 20.5866 25.0458C21.6227 24.9985 22.1856 24.8256 22.5602 24.6796C23.0565 24.4868 23.4106 24.2569 23.7827 23.8849C24.1547 23.5128 24.3852 23.1587 24.578 22.6624C24.7233 22.2878 24.8962 21.7249 24.9436 20.6888C24.9949 19.5675 25.0057 19.2314 25.0057 16.3933C25.0057 13.5545 24.9949 13.2184 24.9436 12.0977C24.8962 11.0616 24.7233 10.4987 24.578 10.1241ZM16.2911 21.8517C13.2762 21.8517 10.8326 19.4081 10.8326 16.3933C10.8326 13.3784 13.2762 10.9342 16.2911 10.9342C19.3059 10.9342 21.7495 13.3784 21.7495 16.3933C21.7495 19.4081 19.3059 21.8517 16.2911 21.8517ZM21.9653 11.9946C21.2609 11.9946 20.6897 11.4234 20.6897 10.719C20.6897 10.0146 21.2609 9.44342 21.9653 9.44342C22.6697 9.44342 23.2409 10.0146 23.2409 10.719C23.2409 11.4234 22.6697 11.9946 21.9653 11.9946Z" fill="white"/>
</g>
<defs>
<clipPath id="clip0_1_257">
<rect width="32.825" height="32.825" fill="white"/>
</clipPath>
</defs>
</svg>
