<svg width="17" height="13" viewBox="0 0 17 13" fill="none" xmlns="http://www.w3.org/2000/svg">
<path d="M9.9198 6.74674C9.33755 6.74674 8.84477 6.54509 8.44146 6.14178C8.03815 5.73847 7.8365 5.24569 7.8365 4.66344C7.8365 4.08118 8.03815 3.5884 8.44146 3.18509C8.84477 2.78179 9.33755 2.58013 9.9198 2.58013C10.5021 2.58013 10.9948 2.78179 11.3981 3.18509C11.8015 3.5884 12.0031 4.08118 12.0031 4.66344C12.0031 5.24569 11.8015 5.73847 11.3981 6.14178C10.9948 6.54509 10.5021 6.74674 9.9198 6.74674ZM4.42303 9.32687C4.00878 9.32687 3.65414 9.17937 3.35914 8.88437C3.06414 8.58937 2.91664 8.23473 2.91664 7.82048V1.5064C2.91664 1.09214 3.06414 0.737508 3.35914 0.442505C3.65414 0.147502 4.00878 0 4.42303 0H15.4166C15.8308 0 16.1855 0.147502 16.4805 0.442505C16.7755 0.737508 16.923 1.09214 16.923 1.5064V7.82048C16.923 8.23473 16.7755 8.58937 16.4805 8.88437C16.1855 9.17937 15.8308 9.32687 15.4166 9.32687H4.42303ZM5.673 8.0769H14.1666C14.1666 7.66131 14.3141 7.30634 14.6091 7.01201C14.9041 6.71767 15.2587 6.57051 15.673 6.57051V2.75637C15.2574 2.75637 14.9024 2.60887 14.6081 2.31386C14.3138 2.01886 14.1666 1.66423 14.1666 1.24997H5.673C5.673 1.66556 5.5255 2.02053 5.2305 2.31487C4.9355 2.6092 4.58086 2.75637 4.16661 2.75637V6.57051C4.5822 6.57051 4.93717 6.71801 5.2315 7.01301C5.52584 7.30801 5.673 7.66264 5.673 8.0769ZM14.439 12.2435H1.5064C1.09214 12.2435 0.737508 12.096 0.442505 11.801C0.147501 11.506 0 11.1514 0 10.7371V2.48397H1.24997V10.7371C1.24997 10.8012 1.27668 10.86 1.3301 10.9134C1.38353 10.9668 1.44229 10.9935 1.5064 10.9935H14.439V12.2435ZM4.42303 8.0769H4.16661C4.16661 8.0769 4.16661 8.05153 4.16661 8.00078C4.16661 7.95003 4.16661 7.88992 4.16661 7.82048V1.5064C4.16661 1.43695 4.16661 1.37685 4.16661 1.3261C4.16661 1.27535 4.16661 1.24997 4.16661 1.24997H4.42303C4.35359 1.24997 4.29348 1.27535 4.24273 1.3261C4.19198 1.37685 4.16661 1.43695 4.16661 1.5064V7.82048C4.16661 7.88992 4.19198 7.95003 4.24273 8.00078C4.29348 8.05153 4.35359 8.0769 4.42303 8.0769Z" fill="white"/>
</svg>
