<svg width="33" height="33" viewBox="0 0 33 33" fill="none" xmlns="http://www.w3.org/2000/svg">
<g clip-path="url(#clip0_1_266)">
<path d="M30.4561 0H2.36591C1.05829 0 -0.00146484 1.05982 -0.00146484 2.36737V30.4576C-0.00146484 31.7652 1.05836 32.825 2.36591 32.825H30.4561C31.7637 32.825 32.8235 31.7651 32.8235 30.4576V2.36737C32.8235 1.05976 31.7637 0 30.4561 0ZM11.6418 24.8111H7.64464V12.7855H11.6418V24.8111ZM9.64331 11.1433H9.61728C8.27594 11.1433 7.40845 10.22 7.40845 9.06597C7.40845 7.88594 8.30248 6.98813 9.66991 6.98813C11.0373 6.98813 11.8787 7.88594 11.9048 9.06597C11.9048 10.22 11.0373 11.1434 9.64331 11.1434V11.1433ZM26.0548 24.8111H22.0581V18.3776C22.0581 16.7609 21.4794 15.6581 20.0331 15.6581C18.9289 15.6581 18.2713 16.402 17.9823 17.12C17.8766 17.3769 17.8508 17.7361 17.8508 18.0954V24.8111H13.8539C13.8539 24.8111 13.9063 13.9136 13.8539 12.7855H17.8508V14.4881C18.382 13.6688 19.3324 12.5032 21.4531 12.5032C24.083 12.5032 26.0548 14.2219 26.0548 17.9156V24.8111Z" fill="white"/>
</g>
<defs>
<clipPath id="clip0_1_266">
<rect width="32.825" height="32.825" fill="white"/>
</clipPath>
</defs>
</svg>
