<svg width="24" height="30" viewBox="0 0 24 30" fill="none" xmlns="http://www.w3.org/2000/svg">
<path d="M12 21C14.55 18.7 16.1875 17.0812 16.9125 16.1437C17.6375 15.2062 18 14.275 18 13.35C18 12.45 17.675 11.675 17.025 11.025C16.375 10.375 15.6 10.05 14.7 10.05C14.175 10.05 13.6687 10.1562 13.1812 10.3687C12.6937 10.5812 12.3 10.875 12 11.25C11.7 10.875 11.3125 10.5812 10.8375 10.3687C10.3625 10.1562 9.85 10.05 9.3 10.05C8.4 10.05 7.625 10.375 6.975 11.025C6.325 11.675 6 12.45 6 13.35C6 13.825 6.0625 14.2625 6.1875 14.6625C6.3125 15.0625 6.5875 15.5312 7.0125 16.0688C7.4375 16.6063 8.04375 17.2625 8.83125 18.0375C9.61875 18.8125 10.675 19.8 12 21ZM12 30C8.525 29.125 5.65625 27.1312 3.39375 24.0187C1.13125 20.9062 0 17.45 0 13.65V4.5L12 0L24 4.5V13.65C24 17.45 22.8688 20.9062 20.6063 24.0187C18.3438 27.1312 15.475 29.125 12 30ZM12 26.85C14.6 26.025 16.75 24.375 18.45 21.9C20.15 19.425 21 16.675 21 13.65V6.5625L12 3.1875L3 6.5625V13.65C3 16.675 3.85 19.425 5.55 21.9C7.25 24.375 9.4 26.025 12 26.85Z" fill="#775A19"/>
</svg>
