<svg width="30" height="27" viewBox="0 0 30 27" fill="none" xmlns="http://www.w3.org/2000/svg">
<path d="M15.15 27C14.725 27 14.3688 26.8563 14.0813 26.5688C13.7937 26.2812 13.65 25.925 13.65 25.5C13.65 25.325 13.6875 25.1437 13.7625 24.9562C13.8375 24.7687 13.95 24.6 14.1 24.45L21.0375 17.5125L19.95 16.425L13.05 23.3625C12.9 23.5125 12.7375 23.625 12.5625 23.7C12.3875 23.775 12.2 23.8125 12 23.8125C11.575 23.8125 11.2188 23.6688 10.9312 23.3813C10.6437 23.0938 10.5 22.7375 10.5 22.3125C10.5 22.0625 10.5375 21.8563 10.6125 21.6938C10.6875 21.5312 10.7875 21.3875 10.9125 21.2625L17.85 14.325L16.8 13.275L9.8625 20.175C9.7125 20.325 9.55 20.4375 9.375 20.5125C9.2 20.5875 9 20.625 8.775 20.625C8.375 20.625 8.025 20.475 7.725 20.175C7.425 19.875 7.275 19.525 7.275 19.125C7.275 18.925 7.3125 18.7375 7.3875 18.5625C7.4625 18.3875 7.575 18.225 7.725 18.075L14.6625 11.1375L13.575 10.0875L6.675 17.025C6.55 17.15 6.4 17.25 6.225 17.325C6.05 17.4 5.8375 17.4375 5.5875 17.4375C5.1625 17.4375 4.80625 17.2938 4.51875 17.0063C4.23125 16.7188 4.0875 16.3625 4.0875 15.9375C4.0875 15.7375 4.125 15.55 4.2 15.375C4.275 15.2 4.3875 15.0375 4.5375 14.8875L12.9 6.525L18.525 12.1875C18.8 12.4625 19.125 12.6812 19.5 12.8438C19.875 13.0063 20.25 13.0875 20.625 13.0875C21.425 13.0875 22.125 12.8062 22.725 12.2437C23.325 11.6812 23.625 10.9625 23.625 10.0875C23.625 9.7375 23.5625 9.375 23.4375 9C23.3125 8.625 23.0875 8.275 22.7625 7.95L16.05 1.2375C16.475 0.8375 16.95 0.53125 17.475 0.31875C18 0.10625 18.525 0 19.05 0C19.7 0 20.3 0.10625 20.85 0.31875C21.4 0.53125 21.9 0.8625 22.35 1.3125L28.6875 7.6875C29.1375 8.1375 29.4688 8.6375 29.6812 9.1875C29.8937 9.7375 30 10.375 30 11.1C30 11.6 29.8875 12.1062 29.6625 12.6187C29.4375 13.1312 29.1125 13.6 28.6875 14.025L16.2 26.55C16 26.75 15.825 26.875 15.675 26.925C15.525 26.975 15.35 27 15.15 27ZM2.2875 15L1.3125 14.025C0.8875 13.625 0.5625 13.15 0.3375 12.6C0.1125 12.05 0 11.475 0 10.875C0 10.225 0.125 9.625 0.375 9.075C0.625 8.525 0.9375 8.0625 1.3125 7.6875L7.65 1.3125C8.05 0.9125 8.525 0.59375 9.075 0.35625C9.625 0.11875 10.1625 0 10.6875 0C11.3625 0 11.9625 0.09375 12.4875 0.28125C13.0125 0.46875 13.525 0.8125 14.025 1.3125L21.7125 9C21.8625 9.15 21.975 9.3125 22.05 9.4875C22.125 9.6625 22.1625 9.85 22.1625 10.05C22.1625 10.45 22.0125 10.8 21.7125 11.1C21.4125 11.4 21.0625 11.55 20.6625 11.55C20.4375 11.55 20.25 11.5188 20.1 11.4563C19.95 11.3938 19.7875 11.275 19.6125 11.1L12.8625 4.425L2.2875 15Z" fill="#775A19"/>
</svg>
