<svg width="32" height="31" viewBox="0 0 32 31" fill="none" xmlns="http://www.w3.org/2000/svg">
<path d="M9 27.7875V14.25H11.4C11.575 14.25 11.75 14.2687 11.925 14.3062C12.1 14.3438 12.275 14.3875 12.45 14.4375L22.8375 18.3C23.1875 18.425 23.4688 18.65 23.6812 18.975C23.8937 19.3 24 19.6375 24 19.9875C24 20.5125 23.8187 20.9375 23.4562 21.2625C23.0938 21.5875 22.675 21.75 22.2 21.75H18.2625C18.1375 21.75 18.0438 21.7438 17.9813 21.7313C17.9188 21.7188 17.8375 21.6875 17.7375 21.6375L15.3375 20.7L14.85 22.1625L17.7375 23.175C17.7875 23.2 17.8625 23.2188 17.9625 23.2313C18.0625 23.2438 18.15 23.25 18.225 23.25H28.5C29.3 23.25 30 23.5375 30.6 24.1125C31.2 24.6875 31.5 25.4 31.5 26.25L19.5375 30.75L9 27.7875ZM0 30.75V14.25H6V30.75H0ZM20.25 9.75H21.75V8.25H20.25V9.75ZM17.25 9.75H18.75V8.25H17.25V9.75ZM20.25 12.75H21.75V11.25H20.25V12.75ZM17.25 12.75H18.75V11.25H17.25V12.75ZM26.2875 18.75C25.9375 17.925 25.4375 17.2 24.7875 16.575C24.1375 15.95 23.3375 15.4625 22.3875 15.1125L12 11.25H9V7.5L19.5 0L30 7.5V18.75H26.2875Z" fill="#775A19"/>
</svg>
