<svg width="29" height="27" viewBox="0 0 29 27" fill="none" xmlns="http://www.w3.org/2000/svg">
<path d="M0 26.9999V24.7499H13.125V8.07399C12.4461 7.89707 11.8524 7.56149 11.3437 7.06726C10.8351 6.57303 10.4875 5.96726 10.3009 5.24995H5.33649L9.74994 15.9086C9.7211 17.0336 9.23264 17.9903 8.28457 18.7788C7.33649 19.5672 6.19996 19.9615 4.87497 19.9615C3.54998 19.9615 2.41345 19.5672 1.46538 18.7788C0.517308 17.9903 0.0288483 17.0336 0 15.9086L4.41346 5.24995H1.5V3H10.3009C10.5336 2.14423 11.011 1.43029 11.7331 0.858174C12.4552 0.286058 13.2942 0 14.2499 0C15.2057 0 16.0447 0.286058 16.7668 0.858174C17.4889 1.43029 17.9663 2.14423 18.199 3H26.9999V5.24995H24.0864L28.4999 15.9086C28.471 17.0336 27.9826 17.9903 27.0345 18.7788C26.0864 19.5672 24.9499 19.9615 23.6249 19.9615C22.2999 19.9615 21.1634 19.5672 20.2153 18.7788C19.2673 17.9903 18.7788 17.0336 18.7499 15.9086L23.1634 5.24995H18.199C18.0124 5.96726 17.6648 6.57303 17.1562 7.06726C16.6475 7.56149 16.0538 7.89707 15.3749 8.07399V24.7499H28.4999V26.9999H0ZM20.7114 15.8365H26.5384L23.6249 8.80665L20.7114 15.8365ZM1.9615 15.8365H7.78844L4.87497 8.80665L1.9615 15.8365ZM14.2499 6C14.7711 6 15.2139 5.81779 15.5783 5.45336C15.9428 5.08893 16.125 4.64613 16.125 4.12497C16.125 3.60381 15.9428 3.16102 15.5783 2.79659C15.2139 2.43216 14.7711 2.24995 14.2499 2.24995C13.7288 2.24995 13.286 2.43216 12.9216 2.79659C12.5571 3.16102 12.3749 3.60381 12.3749 4.12497C12.3749 4.64613 12.5571 5.08893 12.9216 5.45336C13.286 5.81779 13.7288 6 14.2499 6Z" fill="#775A19"/>
</svg>
