<svg width="27" height="27" viewBox="0 0 27 27" fill="none" xmlns="http://www.w3.org/2000/svg">
<path d="M0 26.2499V6H6V0H20.2499V12H26.2499V26.2499H15V20.2499H11.2499V26.2499H0ZM2.24995 24H6V20.2499H2.24995V24ZM2.24995 18H6V14.2499H2.24995V18ZM2.24995 12H6V8.24994H2.24995V12ZM8.24994 18H12V14.2499H8.24994V18ZM8.24994 12H12V8.24994H8.24994V12ZM8.24994 6H12V2.24995H8.24994V6ZM14.2499 18H18V14.2499H14.2499V18ZM14.2499 12H18V8.24994H14.2499V12ZM14.2499 6H18V2.24995H14.2499V6ZM20.2499 24H24V20.2499H20.2499V24ZM20.2499 18H24V14.2499H20.2499V18Z" fill="#775A19"/>
</svg>
